# xmcd
#
# Track frame offsets:
# 150
# 12595
# 28572
# 49951
# 66283
# 82599
# 96982
# 132219
# 146260
# 169023
# 182141
# 198044
# 214560
# 231112
# 244590
# 263722
# 280972
# 311876
# 327220
#
# Disc length: 4606 seconds
#
#
# Revision: 0
# Processed by: cddbd v1.4PL0 Copyright (c) Steve Scherf et al.
# Submitted via: HACP 1.18
#
DISCID=0611fc13
DTITLE=Emmylou Harris - The Trax - Charlotsville - 1991 [CD2]
DYEAR=1900
DGENRE=
TTITLE0=Guitar Town
TTITLE1=In my dreams
TTITLE2=Beneath still water
TTITLE3=Rollin' a ramblin'
TTITLE4=Two more bottles of wine
TTITLE5=Instrumental
TTITLE6=Sailin' shoes
TTITLE7=Cattle call
TTITLE8=Wall of time
TTITLE9=One of these days
TTITLE10=The boxer
TTITLE11=Rose of Cimarron
TTITLE12=Oh! Las Vegas
TTITLE13=Intros
TTITLE14=Together again
TTITLE15=Born to run
TTITLE16=Luxery liner
TTITLE17=Satan's jewel crown
TTITLE18=Jambalaya
EXTD=Emmylou Harris and The Nash ramblers\nThe Trax, Charlotsville, July 11 1991
EXTT0=
EXTT1=
EXTT2=
EXTT3=
EXTT4=
EXTT5=
EXTT6=
EXTT7=
EXTT8=
EXTT9=
EXTT10=
EXTT11=
EXTT12=
EXTT13=
EXTT14=
EXTT15=
EXTT16=
EXTT17=
EXTT18=
PLAYORDER=
